<?xml version="1.0" encoding="utf-8"?>
<!-- Generator: Adobe Illustrator 26.5.0, SVG Export Plug-In . SVG Version: 6.00 Build 0)  -->
<svg version="1.1" id="Layer_1" xmlns="http://www.w3.org/2000/svg" xmlns:xlink="http://www.w3.org/1999/xlink" x="0px" y="0px"
	 viewBox="0 0 32 32" style="enable-background:new 0 0 32 32;" xml:space="preserve">
<style type="text/css">
	.st0{fill:#E9FF70;}
	.st1{fill:#16DB93;}
	.st2{fill:#FF5D8F;}
	.st3{fill:#00BBF9;}
	.st4{opacity:0.6;}
	.st5{fill-rule:evenodd;clip-rule:evenodd;fill:#FFFFFF;}
</style>
<rect x="15.92" y="15.55" transform="matrix(-1 -1.224647e-16 1.224647e-16 -1 48.3004 47.5452)" class="st0" width="16.45" height="16.45"/>
<rect x="-0.38" y="15.55" transform="matrix(-1 -1.224647e-16 1.224647e-16 -1 15.6996 47.5452)" class="st1" width="16.45" height="16.45"/>
<rect x="15.92" transform="matrix(-1 -1.224647e-16 1.224647e-16 -1 48.3004 16.4548)" class="st2" width="16.45" height="16.45"/>
<rect x="-0.38" transform="matrix(-1 -1.224647e-16 1.224647e-16 -1 15.6996 16.4548)" class="st3" width="16.45" height="16.45"/>
<rect x="-3.54" y="-1.45" class="st4" width="39.87" height="35.08"/>
<path class="st5" d="M21.6,24.53c4.12,0,7.47,3.35,7.47,7.47l0,0H27.2c0-3.09-2.51-5.6-5.6-5.6l0,0H10.4c-3.09,0-5.6,2.51-5.6,5.6
	l0,0H2.93c0-4.12,3.35-7.47,7.47-7.47l0,0H21.6z M16.49,4c3.85,0,6.98,3.13,6.98,6.98l0,0v4.7c0,3.85-3.13,6.98-6.98,6.98l0,0h-0.97
	c-3.85,0-6.98-3.13-6.98-6.98l0,0v-4.7C8.53,7.13,11.67,4,15.51,4l0,0H16.49z M16.49,5.87h-0.97c-2.82,0-5.11,2.29-5.11,5.11l0,0
	v4.7c0,2.82,2.29,5.11,5.11,5.11l0,0h0.97c2.82,0,5.11-2.3,5.11-5.11l0,0v-4.7C21.6,8.16,19.31,5.87,16.49,5.87L16.49,5.87z"/>
</svg>
